{
  "source": "C:\\Users\\Peter\\Desktop\\stuff\\MIUN\\quantitative_research\\video_compression\\videos\\BVI-HD\\BVI-HD_CDVL_videos\\ORIG\\BridgeRiver_1920x1080_30fps.mp4",
  "output": "C:\\Users\\Peter\\Desktop\\stuff\\MIUN\\quantitative_research\\video_compression\\compressed_videos\\BVI-HD\\h264\\2.5\\BridgeRiver_1920x1080_30fps_h264.mp4",
  "codec": "h264",
  "ok": "Input #0, mov,mp4,m4a,3gp,3g2,mj2, from 'C:\\Users\\Peter\\Desktop\\stuff\\MIUN\\quantitative_research\\video_compression\\videos\\BVI-HD\\BVI-HD_CDVL_videos\\ORIG\\BridgeRiver_1920x1080_30fps.mp4':\n  Metadata:\n    major_brand     : isom\n    minor_version   : 512\n    compatible_brands: isomiso2avc1mp41\n    encoder         : Lavf54.28.101\n  Duration: 00:00:05.00, start: 0.000000, bitrate: 274913 kb/s\n  Stream #0:0[0x1](und): Video: h264 (High 4:4:4 Predictive) (avc1 / 0x31637661), yuv420p(progressive), 1920x1080, 274910 kb/s, 30 fps, 30 tbr, 30 tbn (default)\n    Metadata:\n      handler_name    : VideoHandler\n      vendor_id       : [0][0][0][0]\n[out#0/mp4 @ 000002b073bc1640] Codec AVOption b:a (set bitrate (in bits/s)) has not been used for any stream. The most likely reason is either wrong type (e.g. a video option with no video streams) or that it is a private option of some decoder which was not actually used for any stream.\nStream mapping:\n  Stream #0:0 -> #0:0 (h264 (native) -> h264 (libx264))\nPress [q] to stop, [?] for help\n[libx264 @ 000002b0746800c0] using cpu capabilities: MMX2 SSE2Fast SSSE3 SSE4.2 AVX FMA3 BMI2 AVX2\n[libx264 @ 000002b0746800c0] profile High, level 5.0, 4:2:0, 8-bit\n[libx264 @ 000002b0746800c0] 264 - core 165 r3222 b35605a - H.264/MPEG-4 AVC codec - Copyleft 2003-2025 - http://www.videolan.org/x264.html - options: cabac=1 ref=5 deblock=1:0:0 analyse=0x3:0x113 me=hex subme=8 psy=1 psy_rd=1.00:0.00 mixed_ref=1 me_range=16 chroma_me=1 trellis=2 8x8dct=1 cqm=0 deadzone=21,11 fast_pskip=1 chroma_qp_offset=-2 threads=18 lookahead_threads=3 sliced_threads=0 nr=0 decimate=1 interlaced=0 bluray_compat=0 constrained_intra=0 bframes=3 b_pyramid=2 b_adapt=1 b_bias=0 direct=3 weightb=1 open_gop=0 weightp=2 keyint=250 keyint_min=25 scenecut=40 intra_refresh=0 rc_lookahead=50 rc=cbr mbtree=1 bitrate=2500 ratetol=1.0 qcomp=0.60 qpmin=0 qpmax=69 qpstep=4 vbv_maxrate=2500 vbv_bufsize=2500 nal_hrd=none filler=0 ip_ratio=1.40 aq=1:1.00\nOutput #0, mp4, to 'C:\\Users\\Peter\\Desktop\\stuff\\MIUN\\quantitative_research\\video_compression\\compressed_videos\\BVI-HD\\h264\\2.5\\BridgeRiver_1920x1080_30fps_h264.mp4':\n  Metadata:\n    major_brand     : isom\n    minor_version   : 512\n    compatible_brands: isomiso2avc1mp41\n    encoder         : Lavf62.3.100\n  Stream #0:0(und): Video: h264 (avc1 / 0x31637661), yuv420p(tv, progressive), 1920x1080, q=2-31, 2500 kb/s, 30 fps, 15360 tbn (default)\n    Metadata:\n      encoder         : Lavc62.11.100 libx264\n      handler_name    : VideoHandler\n      vendor_id       : [0][0][0][0]\n    Side data:\n      cpb: bitrate max/min/avg: 2500000/0/2500000 buffer size: 2500000 vbv_delay: N/A\nframe=    0 fps=0.0 q=0.0 size=       0KiB time=N/A bitrate=N/A speed=N/A elapsed=0:00:00.52    \nframe=    0 fps=0.0 q=0.0 size=       0KiB time=N/A bitrate=N/A speed=N/A elapsed=0:00:01.07    \nframe=    0 fps=0.0 q=0.0 size=       0KiB time=N/A bitrate=N/A speed=N/A elapsed=0:00:01.64    \nframe=   20 fps=8.8 q=40.0 size=       0KiB time=00:00:00.60 bitrate=   0.6kbits/s speed=0.265x elapsed=0:00:02.26    \nframe=   39 fps= 14 q=40.0 size=     256KiB time=00:00:01.16 bitrate=1797.9kbits/s speed=0.407x elapsed=0:00:02.86    \nframe=   65 fps= 19 q=41.0 size=     512KiB time=00:00:02.03 bitrate=2063.0kbits/s speed=0.581x elapsed=0:00:03.49    \nframe=   93 fps= 23 q=42.0 size=     768KiB time=00:00:03.03 bitrate=2074.2kbits/s speed=0.747x elapsed=0:00:04.06    \nframe=  125 fps= 27 q=42.0 size=    1024KiB time=00:00:04.06 bitrate=2062.9kbits/s speed=0.886x elapsed=0:00:04.58    \n[mp4 @ 000002b073bb9980] Starting second pass: moving the moov atom to the beginning of the file\n[out#0/mp4 @ 000002b073bc1640] video:1441KiB audio:0KiB subtitle:0KiB other streams:0KiB global headers:0KiB muxing overhead: 0.181224%\nframe=  150 fps= 31 q=-1.0 Lsize=    1444KiB time=00:00:04.93 bitrate=2398.0kbits/s speed=1.01x elapsed=0:00:04.89    \n[libx264 @ 000002b0746800c0] frame I:1     Avg QP:40.40  size: 45384\n[libx264 @ 000002b0746800c0] frame P:38    Avg QP:41.39  size: 16370\n[libx264 @ 000002b0746800c0] frame B:111   Avg QP:44.55  size:  7278\n[libx264 @ 000002b0746800c0] consecutive B-frames:  1.3%  0.0%  0.0% 98.7%\n[libx264 @ 000002b0746800c0] mb I  I16..4: 28.3% 64.8%  6.9%\n[libx264 @ 000002b0746800c0] mb P  I16..4:  0.8%  4.5%  0.1%  P16..4: 20.8%  5.8%  4.0%  0.0%  0.0%    skip:64.0%\n[libx264 @ 000002b0746800c0] mb B  I16..4:  0.0%  0.4%  0.0%  B16..8: 18.4%  2.6%  0.4%  direct: 2.3%  skip:75.8%  L0:43.5% L1:52.2% BI: 4.3%\n[libx264 @ 000002b0746800c0] 8x8 transform intra:79.4% inter:74.0%\n[libx264 @ 000002b0746800c0] direct mvs  spatial:91.0% temporal:9.0%\n[libx264 @ 000002b0746800c0] coded y,uvDC,uvAC intra: 49.2% 11.2% 0.9% inter: 8.1% 0.3% 0.0%\n[libx264 @ 000002b0746800c0] i16 v,h,dc,p: 21% 45%  9% 25%\n[libx264 @ 000002b0746800c0] i8 v,h,dc,ddl,ddr,vr,hd,vl,hu:  5%  7% 10%  7% 18%  9% 24%  6% 14%\n[libx264 @ 000002b0746800c0] i4 v,h,dc,ddl,ddr,vr,hd,vl,hu:  4%  8%  5%  8% 16%  9% 20%  7% 23%\n[libx264 @ 000002b0746800c0] i8c dc,h,v,p: 94%  5%  1%  0%\n[libx264 @ 000002b0746800c0] Weighted P-Frames: Y:0.0% UV:0.0%\n[libx264 @ 000002b0746800c0] ref P L0: 51.4%  5.1% 21.7% 10.5% 11.3%\n[libx264 @ 000002b0746800c0] ref B L0: 78.5% 12.7%  6.0%  2.8%\n[libx264 @ 000002b0746800c0] ref B L1: 95.8%  4.2%\n[libx264 @ 000002b0746800c0] kb/s:2360.49\n",
  "seconds": 5.2201783657073975,
  "probe_out": {}
}